<?xml version="1.0" standalone="no"?><!DOCTYPE svg PUBLIC "-//W3C//DTD SVG 1.1//EN" "http://www.w3.org/Graphics/SVG/1.1/DTD/svg11.dtd"><svg t="1744362926132" class="icon" viewBox="0 0 1024 1024" version="1.1" xmlns="http://www.w3.org/2000/svg" p-id="3801" xmlns:xlink="http://www.w3.org/1999/xlink" width="128" height="128"><path d="M658.5344 238.933333c12.8 0 23.995733 11.537067 23.995733 24.746667v181.486933h147.1488c4.8128 0 9.6256 1.672533 12.8 4.949334 11.195733 8.260267 14.404267 23.108267 6.417067 34.645333l-187.153067 288.768a22.084267 22.084267 0 0 1-19.182933 11.537067c-12.8 0-23.995733-11.537067-23.995733-24.746667v-181.486933H471.381333a17.851733 17.851733 0 0 1-12.8-4.949334c-11.195733-8.260267-14.370133-23.108267-6.382933-34.645333l187.153067-288.768A22.084267 22.084267 0 0 1 658.5344 238.933333z m-215.927467 437.248c27.170133 0 47.991467 21.435733 47.991467 49.493334s-20.821333 49.493333-47.991467 49.493333H282.624c-27.170133 0-47.957333-21.435733-47.957333-49.493333s20.7872-49.493333 47.957333-49.493334h159.982933z m-95.982933-197.973333c27.204267 0 47.991467 21.4016 47.991467 49.493333 0 28.023467-20.821333 49.493333-47.991467 49.493334h-128C191.488 577.194667 170.666667 555.690667 170.666667 527.701333c0-28.091733 20.821333-49.493333 47.991466-49.493333h127.965867z m95.982933-198.0416c27.170133 0 47.991467 21.469867 47.991467 49.493333 0 28.0576-20.821333 49.493333-47.991467 49.493334H282.624c-27.170133 0-47.957333-21.435733-47.957333-49.493334 0-28.023467 20.7872-49.493333 47.957333-49.493333h159.982933z" p-id="3802" fill="#9855FF"></path></svg>